# xmcd
#
# Track frame offsets:
#  150
#  16273
#  38881
#  56300
#  67995
#  90642
#  109624
#  126806
#  151587
#  157458
#  168888
#  179531
#  189993
#  200638
#  213380
#  223738
#
# Disc length: 3168 seconds
#
# Revision: 1
# Processed by: cddbd v1.5.2PL0 Copyright (c) Steve Scherf et al.
# Submitted via: Collectorz.com_Music_Collector 6.11
#
DISCID=d90c5e10
DTITLE=Eric Clapton - Eric Clapton and Friends (2CDs) [CD1)
DYEAR=1995
DGENRE=Blues
TTITLE0=Louise
TTITLE1=Five Long Years
TTITLE2=Early In The Morning
TTITLE3=Pounds And Stomps
TTITLE4=First Time I Met The Blues
TTITLE5=They Call It Stormy Monday
TTITLE6=Big Boss Man
TTITLE7=She's So Respectable
TTITLE8=Choker
TTITLE9=Snake Drive
TTITLE10=West Coast Idea
TTITLE11=Eric's Blues
TTITLE12=Got To Hurry
TTITLE13=Freight Loader
TTITLE14=A Certain Girl
TTITLE15=Draggin' My Tail
EXTD=
EXTT0=
EXTT1=
EXTT2=
EXTT3=
EXTT4=
EXTT5=
EXTT6=
EXTT7=
EXTT8=
EXTT9=
EXTT10=
EXTT11=
EXTT12=
EXTT13=
EXTT14=
EXTT15=
PLAYORDER=
